<svg width="8" height="10" viewBox="0 0 8 10" fill="none" xmlns="http://www.w3.org/2000/svg">
<path d="M7.85174 4.46683C7.64375 4.67482 7.29709 4.67482 7.0891 4.46683L4.52385 1.90158V6.89341C4.52385 7.17074 4.31586 7.44806 3.9692 7.44806C3.62255 7.44806 3.48388 7.17074 3.48388 6.89341L3.48388 1.90158L0.918636 4.46683C0.710643 4.67482 0.363988 4.67482 0.155995 4.46683C-0.0519983 4.25883 -0.0519983 3.91218 0.155995 3.70419L3.62255 0.237635C3.69188 0.168303 3.83054 0.0989723 3.9692 0.0989723C4.10786 0.0989723 4.24653 0.168303 4.31586 0.237635L7.78241 3.70419C8.05973 3.98151 8.05973 4.25883 7.85174 4.46683Z" fill="#63666A"/>
<path d="M3.9692 8.28004C4.35211 8.28004 4.66251 8.59044 4.66251 8.97335C4.66251 9.35625 4.35211 9.66666 3.9692 9.66666C3.5863 9.66666 3.27589 9.35625 3.27589 8.97335C3.27589 8.59044 3.5863 8.28004 3.9692 8.28004Z" fill="#63666A"/>
</svg>
