<?xml version="1.0" encoding="utf-8"?>
<!-- Generator: Adobe Illustrator 26.0.3, SVG Export Plug-In . SVG Version: 6.00 Build 0)  -->
<svg version="1.1" id="レイヤー_1" xmlns="http://www.w3.org/2000/svg" xmlns:xlink="http://www.w3.org/1999/xlink" x="0px"
	 y="0px" viewBox="0 0 512 512" style="enable-background:new 0 0 512 512;" xml:space="preserve">
<style type="text/css">
	.st0{fill:#1F2021;}
</style>
<path class="st0" d="M384,320c-17.7,0-32,14.3-32,32v96H64V160h96c17.7,0,32-14.3,32-32s-14.3-32-32-32H64c-35.3,0-64,28.7-64,64
	v288c0,35.3,28.6,64,64,64h288c35.4,0,64-28.7,64-64v-96C416,334.3,401.7,320,384,320z M502.6,9.4C496.8,3.6,488.8,0,480,0H320
	c-17.7,0-31.1,14.3-31.1,31.1c0,17.7,14.3,31.1,32,31.1h82.8l-225,228.5c-12.5,12.5-12.5,32.8,0,45.3s32.8,12.5,45.3,0l224-226.8
	V192c0,17.7,14.3,31.1,31.1,31.1S512,209.7,512,192V31.1C512,23.2,508.4,15.2,502.6,9.4z"/>
</svg>
