<svg width="24" height="24" viewBox="0 0 24 24" fill="none" xmlns="http://www.w3.org/2000/svg">
<path d="M20 5H18.8V3.8C18.8 3.3 18.4 3 18 3C17.6 3 17.2 3.3 17.2 3.8V5H6.8V3.8C6.8 3.3 6.4 3 6 3C5.6 3 5.2 3.3 5.2 3.8V5H4C2.9 5 2 5.9 2 7V19C2 20.1 2.9 21 4 21H20C21.1 21 22 20.1 22 19V7C22 5.9 21.1 5 20 5ZM20.5 19C20.5 19.3 20.3 19.5 20 19.5H4C3.7 19.5 3.5 19.3 3.5 19V7C3.5 6.7 3.7 6.5 4 6.5H20C20.3 6.5 20.5 6.7 20.5 7V19ZM8.2 13.2H5.8C5.3 13.2 5 13.6 5 14C5 14.4 5.3 14.8 5.8 14.8H8.3C8.7 14.8 9 14.4 9 14C9 13.6 8.7 13.2 8.2 13.2ZM13.2 13.2H10.8C10.3 13.2 10 13.6 10 14C10 14.4 10.3 14.8 10.8 14.8H13.3C13.7 14.8 14.1 14.5 14.1 14C14.1 13.5 13.7 13.2 13.2 13.2ZM18.2 13.2H15.7C15.3 13.2 14.9 13.5 14.9 14C14.9 14.5 15.2 14.8 15.7 14.8H18.2C18.6 14.8 19 14.5 19 14C19 13.5 18.7 13.2 18.2 13.2ZM8.2 16.2H5.8C5.3 16.2 5 16.6 5 17C5 17.4 5.3 17.8 5.8 17.8H8.3C8.7 17.8 9 17.4 9 17C9 16.6 8.7 16.2 8.2 16.2ZM13.2 16.2H10.8C10.3 16.2 10 16.6 10 17C10 17.4 10.3 17.8 10.8 17.8H13.3C13.7 17.8 14.1 17.5 14.1 17C14.1 16.5 13.7 16.2 13.2 16.2ZM18.2 16.2H15.7C15.3 16.2 14.9 16.5 14.9 17C14.9 17.5 15.2 17.8 15.7 17.8H18.2C18.6 17.8 19 17.5 19 17C19 16.5 18.7 16.2 18.2 16.2Z" fill="#63666A"/>
</svg>
