<svg width="32" height="32" viewBox="0 0 32 32" fill="none" xmlns="http://www.w3.org/2000/svg">
<path d="M11.5721 20.4098C11.3721 20.6098 11.3721 20.9098 11.5721 21.2098C11.7721 21.4098 12.0721 21.4098 12.3721 21.2098C12.5721 21.0098 12.5721 20.7098 12.3721 20.4098C12.1721 20.2098 11.7721 20.2098 11.5721 20.4098ZM8.57212 17.4098C8.37212 17.6098 8.37212 17.9098 8.57212 18.2098C8.77212 18.5098 9.07212 18.4098 9.37212 18.2098C9.57212 18.0098 9.57212 17.7098 9.37212 17.4098C9.17212 17.2098 8.77212 17.2098 8.57212 17.4098ZM7.07212 15.9098C6.87212 16.1098 6.87212 16.4098 7.07212 16.7098C7.27212 16.9098 7.57212 16.9098 7.87212 16.7098C8.07212 16.5098 8.07212 16.2098 7.87212 15.9098C7.57212 15.7098 7.27212 15.7098 7.07212 15.9098ZM10.0721 18.9098C9.87212 19.1098 9.87212 19.4098 10.0721 19.7098C10.2721 19.9098 10.5721 19.9098 10.8721 19.7098C11.0721 19.5098 11.0721 19.2098 10.8721 18.9098C10.6721 18.7098 10.2721 18.7098 10.0721 18.9098ZM30.4721 8.30981L28.2721 6.10981C28.0721 5.90981 27.7721 5.90981 27.5721 6.10981C26.9721 6.70981 25.8721 6.70981 25.2721 6.10981C24.6721 5.50981 24.6721 4.40981 25.2721 3.80981C25.4721 3.60981 25.4721 3.30981 25.2721 3.10981L22.9721 0.809814C21.9721 -0.190186 20.2721 -0.190186 19.2721 0.809814L1.07212 18.9098C0.0721207 19.9098 0.0721207 21.6098 1.07212 22.6098L3.27212 24.9098C3.47212 25.1098 3.77212 25.1098 3.97212 24.9098C4.57212 24.3098 5.67212 24.3098 6.27212 24.9098C6.57212 25.2098 6.77212 25.6098 6.77212 26.1098C6.77212 26.6098 6.57212 26.9098 6.27212 27.3098C6.17212 27.4098 6.17212 27.5098 6.17212 27.7098C6.17212 27.9098 6.27212 27.9098 6.37212 28.0098L8.67212 30.3098C9.17212 30.8098 9.87212 31.1098 10.5721 31.1098C11.2721 31.1098 11.9721 30.8098 12.4721 30.3098L30.6721 12.1098C31.1721 11.6098 31.4721 10.9098 31.4721 10.2098C31.4721 9.50981 30.9721 8.80981 30.4721 8.30981ZM29.7721 11.4098L11.6721 29.5098C11.0721 30.1098 9.97212 30.1098 9.37212 29.5098L7.47212 27.6098C7.77212 27.2098 7.97212 26.7098 7.97212 26.1098C7.97212 25.4098 7.67212 24.7098 7.17212 24.2098C6.27212 23.3098 4.87212 23.2098 3.87212 23.9098L1.77212 22.0098C1.17212 21.4098 1.17212 20.3098 1.77212 19.7098L19.8721 1.50981C20.4721 0.909814 21.5721 0.909814 22.1721 1.50981L24.0721 3.40981C23.3721 4.40981 23.4721 5.80981 24.3721 6.70981C25.2721 7.60981 26.6721 7.70981 27.6721 7.00981L29.7721 9.00981C30.4721 9.70981 30.4721 10.7098 29.7721 11.4098ZM20.8721 11.8098L21.1721 9.60981C21.1721 9.40981 21.0721 9.20982 20.8721 9.10981C20.6721 9.00981 20.4721 9.00981 20.2721 9.20981L18.6721 10.7098L16.6721 9.80981C16.4721 9.70981 16.2721 9.80981 16.0721 9.90981C15.9721 10.0098 15.8721 10.3098 15.9721 10.5098L16.8721 12.5098L15.4721 14.0098C15.3721 14.2098 15.2721 14.4098 15.3721 14.6098C15.4721 14.8098 15.6721 14.9098 15.8721 14.9098L18.0721 14.6098L19.1721 16.5098C19.2721 16.7098 19.4721 16.8098 19.5721 16.8098H19.6721C19.8721 16.8098 20.0721 16.6098 20.0721 16.4098L20.4721 14.3098L22.5721 13.9098C22.7721 13.9098 22.9721 13.7098 22.9721 13.5098C22.9721 13.3098 22.8721 13.1098 22.7721 13.0098L20.8721 11.8098ZM19.9721 13.3098C19.7721 13.3098 19.5721 13.5098 19.5721 13.7098L19.3721 14.8098L18.7721 13.8098C18.6721 13.6098 18.4721 13.5098 18.3721 13.5098C18.3721 13.5098 18.3721 13.5098 18.2721 13.5098L17.1721 13.6098L17.9721 12.8098C18.0721 12.7098 18.1721 12.4098 18.0721 12.3098L17.5721 11.3098L18.5721 11.8098C18.7721 11.9098 18.9721 11.9098 19.0721 11.7098L19.8721 10.9098V12.0098C19.8721 12.2098 19.9721 12.4098 20.1721 12.5098L21.1721 13.1098L19.9721 13.3098ZM13.1721 21.9098C12.9721 22.1098 12.9721 22.4098 13.1721 22.7098C13.3721 22.9098 13.6721 22.9098 13.9721 22.7098C14.1721 22.5098 14.1721 22.2098 13.9721 21.9098C13.6721 21.7098 13.3721 21.7098 13.1721 21.9098ZM14.6721 23.4098C14.4721 23.6098 14.4721 23.9098 14.6721 24.2098C14.8721 24.4098 15.1721 24.4098 15.4721 24.2098C15.6721 24.0098 15.6721 23.7098 15.4721 23.4098C15.1721 23.2098 14.8721 23.2098 14.6721 23.4098Z" fill="#EF3D55"/>
</svg>
