<svg xmlns="http://www.w3.org/2000/svg" width="17" height="17" viewBox="0 0 17 17">
  <g id="event_note" transform="translate(-372 -3654)">
    <rect id="Path" width="17" height="17" transform="translate(372 3654)" fill="rgba(0,0,0,0)"/>
    <path id="Icon" d="M13.6,17H1.7A1.7,1.7,0,0,1,0,15.3V3.4A1.7,1.7,0,0,1,1.7,1.7h.85V0h1.7V1.7h6.8V0h1.7V1.7h.85a1.7,1.7,0,0,1,1.7,1.7V15.3A1.7,1.7,0,0,1,13.6,17ZM1.7,6.8v8.5H13.6V6.8Zm0-3.4V5.1H13.6V3.4ZM11.9,13.6H10.2V11.9h1.7v1.7Zm-3.4,0H6.8V11.9H8.5v1.7Zm-3.4,0H3.4V11.9H5.1v1.7Zm6.8-3.4H10.2V8.5h1.7v1.7Zm-3.4,0H6.8V8.5H8.5v1.7Zm-3.4,0H3.4V8.5H5.1v1.7Z" transform="translate(372.85 3654)" fill="#1f2021"/>
  </g>
</svg>
