<svg width="32" height="28" viewBox="0 0 32 28" fill="none" xmlns="http://www.w3.org/2000/svg">
<path d="M23.4932 1.45981C25.3932 1.45981 27.1933 2.15981 28.4932 3.55981C31.2932 6.35981 31.2932 10.8598 28.4932 13.6598L16.4932 25.6598C16.2932 25.8598 16.0933 25.8598 15.9932 25.8598C15.8932 25.8598 15.6932 25.8598 15.4932 25.6598L3.49325 13.6598C0.693249 10.8598 0.693249 6.35981 3.49325 3.55981C4.79325 2.25981 6.59325 1.45981 8.49325 1.45981C10.3932 1.45981 12.1932 2.15981 13.4932 3.55981L14.9932 4.95981L15.9932 5.95981L16.9932 4.95981L18.3932 3.55981C19.7932 2.15981 21.5933 1.45981 23.4932 1.45981ZM23.4932 0.0598145C21.2932 0.0598145 19.0933 0.859814 17.4932 2.55981L15.9932 3.95981L14.5933 2.55981C12.8933 0.859814 10.6932 0.0598145 8.49325 0.0598145C6.29325 0.0598145 4.09325 0.859814 2.49325 2.55981C-0.806751 5.85981 -0.806751 11.2598 2.49325 14.6598L14.4932 26.6598C14.8932 27.0598 15.4932 27.2598 15.9932 27.2598C16.4932 27.2598 17.0933 27.0598 17.4932 26.6598L29.4932 14.6598C32.7933 11.3598 32.7933 5.95981 29.4932 2.55981C27.7932 0.859814 25.5933 0.0598145 23.4932 0.0598145Z" fill="#EF3D55"/>
</svg>
