<svg width="33" height="31" viewBox="0 0 33 31" fill="none" xmlns="http://www.w3.org/2000/svg">
<path d="M28.517 4.52509C25.6668 1.67491 21.8666 0.0598145 17.7813 0.0598145C13.6961 0.0598145 9.89584 1.67491 7.04567 4.52509C4.19549 7.37527 2.58039 11.1755 2.58039 15.2608H1.63033C1.0603 15.2608 0.775282 15.6408 1.15531 16.2108L2.6754 18.681C2.96042 19.156 3.53045 19.156 3.81547 18.681L5.43057 16.2108C5.71559 15.7358 5.52558 15.2608 4.95554 15.2608H4.00548C4.00548 11.5555 5.43057 8.13531 8.09073 5.47515C10.6559 2.90999 14.0761 1.4849 17.7813 1.4849C21.4866 1.4849 24.9068 2.90999 27.5669 5.47515C30.1321 8.04031 31.6522 11.5555 31.6522 15.2608C31.6522 18.966 30.2271 22.3862 27.5669 25.0464C25.0018 27.6115 21.4866 29.1316 17.7813 29.1316C14.0761 29.1316 10.6559 27.6115 7.99573 25.0464C7.71071 24.7613 7.23568 24.7613 7.04567 25.0464C6.76065 25.3314 6.76065 25.8064 7.04567 25.9964C9.89584 28.8466 13.6961 30.4617 17.7813 30.4617C21.8666 30.4617 25.6668 28.8466 28.517 25.9964C31.3672 23.1462 32.9823 19.346 32.9823 15.2608C32.9823 11.1755 31.3672 7.37527 28.517 4.52509ZM17.7813 25.9964C23.6717 25.9964 28.517 21.1511 28.517 15.2608C28.517 9.37039 23.6717 4.52509 17.7813 4.52509C11.891 4.52509 7.04567 9.37039 7.04567 15.2608C7.04567 21.1511 11.796 25.9964 17.7813 25.9964ZM17.7813 5.95018C22.9116 5.95018 27.0919 10.1304 27.0919 15.2608C27.0919 20.3911 22.9116 24.5713 17.7813 24.5713C12.651 24.5713 8.47076 20.3911 8.47076 15.2608C8.47076 10.1304 12.651 5.95018 17.7813 5.95018ZM17.3063 15.7358C17.4013 15.8308 17.5913 15.9258 17.7813 15.9258C17.9713 15.9258 18.1614 15.8308 18.2564 15.7358L23.6717 10.3204C23.9567 10.0354 23.9567 9.5604 23.6717 9.37039C23.3867 9.08537 22.9116 9.08537 22.7216 9.37039L17.7813 14.3107L13.8861 10.4155C13.6011 10.1304 13.126 10.1304 12.936 10.4155C12.651 10.7005 12.651 11.1755 12.936 11.3655L17.3063 15.7358Z" fill="#EF3D55"/>
</svg>
