<svg width="16" height="16" viewBox="0 0 16 16" fill="none" xmlns="http://www.w3.org/2000/svg">
<path d="M8.00004 1.33325C4.33337 1.33325 1.33337 4.33325 1.33337 7.99992C1.33337 11.6666 4.33337 14.6666 8.00004 14.6666C11.6667 14.6666 14.6667 11.6666 14.6667 7.99992C14.6667 4.33325 11.6667 1.33325 8.00004 1.33325ZM13.6667 7.46659H11.6667C11.6 5.59992 11.0667 3.93325 10.3334 2.79992C12.1334 3.66659 13.4667 5.39992 13.6667 7.46659ZM7.46671 2.46659V7.53325H5.33337C5.46671 4.93325 6.46671 2.93325 7.46671 2.46659ZM7.46671 8.53325V13.5999C6.40004 13.1333 5.40004 11.1333 5.33337 8.53325H7.46671ZM8.53337 13.5333V8.46659H10.6667C10.5334 11.0666 9.53337 13.0666 8.53337 13.5333ZM8.53337 7.46659V2.46659C9.60004 2.93325 10.6 4.93325 10.6667 7.53325H8.53337V7.46659ZM5.66671 2.86659C4.93337 3.99992 4.40004 5.66659 4.33337 7.53325H2.33337C2.53337 5.39992 3.86671 3.66659 5.66671 2.86659ZM2.33337 8.53325H4.33337C4.40004 10.3999 4.93337 12.0666 5.66671 13.1999C3.86671 12.3333 2.53337 10.5999 2.33337 8.53325ZM10.3334 13.1333C11.0667 11.9999 11.6 10.3333 11.6667 8.46659H13.6667C13.4667 10.5999 12.1334 12.3333 10.3334 13.1333Z" fill="#63666A"/>
</svg>
