<?xml version="1.0" ?><svg data-name="Layer 1" id="Layer_1" viewBox="0 0 512 512" xmlns="http://www.w3.org/2000/svg"><path d="M270.48,334.86c0-13.3-16.24-23.71-37-23.71s-37,10.41-37,23.71,16.25,23.71,37,23.71S270.48,348.16,270.48,334.86Zm-63.64,0c0-6.34,10.95-13.41,26.66-13.41s26.67,7.07,26.67,13.41-11,13.41-26.67,13.41S206.84,341.2,206.84,334.86Z"/><path d="M363.38,326.52a50.34,50.34,0,0,0,21.3-41.09V260A46.79,46.79,0,0,0,338,213.23H288.2a5.15,5.15,0,0,0-5.15,5.16v46.89H161.11a16,16,0,0,0-16,16V388.42a16,16,0,0,0,16,16h48.94V436.7H174.64a5.16,5.16,0,0,0,0,10.31H377.35a26.74,26.74,0,0,0,26.71-26.71V376.42A51,51,0,0,0,363.38,326.52ZM338,223.54A36.47,36.47,0,0,1,374,255c-14.23-.31-17.68-7.23-17.8-7.45a5.15,5.15,0,0,0-8.74-1.29c-6.29,7.66-34.05,6.76-54.13,3.53V223.54Zm-44.6,36.66c13.87,2.15,43,5.28,57.27-3.35,3.85,3.81,11.07,8.26,23.75,8.43v20.15a40.1,40.1,0,0,1-40.05,40.05h-.91a30.53,30.53,0,0,1-11.49-2.14v-7.77c13.75-2.35,16.77-12.42,16.89-12.88a5.07,5.07,0,0,0-3.42-6.24,5.22,5.22,0,0,0-6.44,3.3c-.16.45-1.51,3.78-7,5.27V281.3a16,16,0,0,0-16-16H293.35Zm-138,128.22V281.3a5.73,5.73,0,0,1,5.72-5.72H305.89a5.72,5.72,0,0,1,5.72,5.72V388.42a5.72,5.72,0,0,1-5.72,5.72H161.11A5.73,5.73,0,0,1,155.39,388.42Zm65,16h26.29V436.7H220.36Zm157,32.25H311.2a26.53,26.53,0,0,1,26-21.33h29.59a5.15,5.15,0,0,0,5.15-5.15V399.81h21.84V420.3A16.42,16.42,0,0,1,377.35,436.7Zm16.41-47.19H371.92V364.05a5.15,5.15,0,1,0-10.3,0v41H337.18a36.83,36.83,0,0,0-36.42,31.63H257V404.45h48.94a16,16,0,0,0,16-16V335.78h31.2a40.68,40.68,0,0,1,40.64,40.64Z"/><path d="M333.86,284.37a5.14,5.14,0,0,0,5.15-5.15v-4.71a5.15,5.15,0,0,0-10.3,0v4.71A5.14,5.14,0,0,0,333.86,284.37Z"/><path d="M454.48,220.18,371.85,155V80.87a5.15,5.15,0,0,0-5.15-5.15h-48a5.14,5.14,0,0,0-5.15,5.15V109L259.19,66.1a5.17,5.17,0,0,0-6.38,0L57.52,220.18a5.16,5.16,0,0,0,3.19,9.2h43.61V436.51a5.16,5.16,0,0,0,10.31,0V224.23a5.16,5.16,0,0,0-5.16-5.16H75.56L256,76.7l59.51,47a5.15,5.15,0,0,0,8.34-4V86h37.69v71.46a5.16,5.16,0,0,0,2,4.05l72.94,57.54H402.53a5.16,5.16,0,1,0,0,10.31h48.76a5.16,5.16,0,0,0,3.19-9.2Z"/></svg>