<svg width="17" height="18" viewBox="0 0 17 18" fill="none" xmlns="http://www.w3.org/2000/svg">
<path d="M16.75 8.58342L14.25 6.08342C14 5.83342 13.5834 5.83342 13.3334 6.08342C13.0834 6.33342 13.0834 6.75008 13.3334 7.00008L14.75 8.41675H8.00002C7.66669 8.41675 7.33335 8.66675 7.33335 9.08342C7.33335 9.50008 7.58335 9.75008 8.00002 9.75008H14.8334L13.4167 11.1667C13.1667 11.4167 13.1667 11.8334 13.4167 12.0834C13.5 12.1667 13.6667 12.2501 13.8334 12.2501C14 12.2501 14.1667 12.1667 14.25 12.0834L16.75 9.58342C17 9.16675 17 8.83342 16.75 8.58342ZM11.3334 12.6667C11 12.6667 10.6667 12.9167 10.6667 13.3334V16.1667H2.00002V2.00008H10.75V4.83342C10.75 5.16675 11 5.50008 11.4167 5.50008C11.8334 5.50008 12.0834 5.25008 12.0834 4.83342V1.33341C12 0.916748 11.6667 0.666748 11.3334 0.666748H1.33335C1.00002 0.666748 0.666687 0.916748 0.666687 1.33341V16.7501C0.666687 17.0834 1.00002 17.3334 1.33335 17.3334H11.3334C11.6667 17.3334 12 17.0834 12 16.6667V13.2501C12 12.9167 11.6667 12.6667 11.3334 12.6667Z" fill="#63666A"/>
</svg>
