<svg width="36" height="29" viewBox="0 0 36 29" fill="none" xmlns="http://www.w3.org/2000/svg">
<path d="M29.3355 0.659717C26.0355 0.659717 23.3355 3.35972 23.3355 6.65972C23.3355 9.95972 26.0355 12.6597 29.3355 12.6597C32.6355 12.6597 35.3355 9.95972 35.3355 6.65972C35.3355 3.35972 32.6355 0.659717 29.3355 0.659717ZM29.3355 11.3597C26.7355 11.3597 24.6355 9.25972 24.6355 6.65972C24.6355 4.05972 26.7355 1.95972 29.3355 1.95972C30.4355 1.95972 31.4355 2.35972 32.2355 2.95972C32.1355 2.95972 32.0355 3.05972 31.9355 3.15972L29.3355 5.75972L27.3355 3.75972C27.0355 3.45972 26.6355 3.45972 26.4355 3.75972C26.2355 4.05972 26.1355 4.45972 26.4355 4.65972L28.8355 7.05972C28.9355 7.15972 29.1355 7.25972 29.3355 7.25972C29.5355 7.25972 29.6355 7.15972 29.8355 7.05972L32.8355 4.05972C32.9355 3.95972 32.9356 3.85972 33.0355 3.75972C33.6355 4.55972 34.0355 5.55972 34.0355 6.65972C34.0355 9.25972 31.9355 11.3597 29.3355 11.3597ZM28.8355 22.3597C28.7355 22.3597 28.7355 22.3597 28.8355 22.3597H16.1355C16.0355 22.3597 16.0355 22.3597 15.9355 22.2597L14.4355 18.3597H28.3355C29.0355 18.3597 29.6355 17.9597 29.9355 17.2597L31.0355 14.4597C30.5355 14.5597 29.9355 14.6597 29.4355 14.6597L28.6355 16.7597C28.6355 16.8597 28.5355 16.8597 28.4355 16.8597H13.9355L10.3355 7.45972H21.3355C21.3355 7.15972 21.3355 6.85972 21.3355 6.65972C21.3355 6.45972 21.3355 6.25972 21.3355 5.95972H9.83555L8.13555 1.55972C7.83555 0.959717 7.23555 0.459717 6.53555 0.459717H1.73555C1.33555 0.459717 0.935547 0.759717 0.935547 1.25972C0.935547 1.65972 1.23555 2.05972 1.73555 2.05972H6.63555C6.73555 2.05972 6.73555 2.05972 6.83555 2.15972L8.63555 6.85972C8.63555 6.95972 8.63555 6.95972 8.63555 7.05972L12.7355 17.9597C12.7355 18.0597 12.7355 18.0597 12.8355 18.0597L14.5355 22.5597C13.1355 22.8597 12.1355 24.1597 12.1355 25.6597C12.1355 27.3597 13.5355 28.8597 15.3355 28.8597C17.0355 28.8597 18.5355 27.4597 18.5355 25.6597C18.5355 25.0597 18.3355 24.4597 18.0355 23.9597H26.0355C25.7355 24.4597 25.5355 25.0597 25.5355 25.6597C25.5355 27.3597 26.9355 28.8597 28.7355 28.8597C30.5355 28.8597 31.9355 27.4597 31.9355 25.6597C31.7355 23.8597 30.4355 22.4597 28.8355 22.3597ZM15.2355 27.1597C14.3355 27.1597 13.5355 26.4597 13.5355 25.4597C13.5355 24.4597 14.2355 23.7597 15.2355 23.7597C16.1355 23.7597 16.9355 24.4597 16.9355 25.4597C16.9355 26.4597 16.1355 27.1597 15.2355 27.1597ZM28.6355 27.1597C27.7355 27.1597 26.9355 26.4597 26.9355 25.4597C26.9355 24.4597 27.6355 23.7597 28.6355 23.7597C29.6355 23.7597 30.3355 24.4597 30.3355 25.4597C30.3355 26.4597 29.5355 27.1597 28.6355 27.1597Z" fill="#EF3D55"/>
</svg>
