<svg width="31" height="31" viewBox="0 0 31 31" fill="none" xmlns="http://www.w3.org/2000/svg">
<path d="M20.8279 17.6598C20.9279 17.4598 21.1279 17.3598 21.2279 17.1598C19.9279 16.1598 18.4279 15.4598 16.8279 14.9598C19.5279 13.7598 21.4279 10.9598 21.4279 7.75981C21.4279 3.55981 17.9279 0.0598145 13.6279 0.0598145C9.32786 0.0598145 5.72786 3.55981 5.72786 7.95981C5.72786 11.1598 7.62786 13.8598 10.3279 15.1598C4.92786 16.4598 0.927856 21.4598 0.927856 27.2598C0.927856 27.6598 1.22786 27.9598 1.62786 27.9598C2.02786 27.9598 2.32786 27.6598 2.32786 27.2598C2.32786 20.9598 7.42786 15.9598 13.6279 15.9598C15.8279 15.9598 17.9279 16.6598 19.7279 17.7598C20.0279 17.6598 20.4279 17.6598 20.8279 17.6598ZM7.02786 7.95981C7.02786 4.35981 9.92786 1.35981 13.5279 1.35981C17.1279 1.35981 20.0279 4.25981 20.0279 7.95981C20.0279 11.6598 17.1279 14.4598 13.5279 14.4598C9.92786 14.4598 7.02786 11.5598 7.02786 7.95981ZM28.6279 22.5598H28.3279C28.3279 22.4598 28.2279 22.4598 28.2279 22.3598L28.4279 22.1598C29.0279 21.5598 29.0279 20.6598 28.4279 20.0598L27.9279 19.5598C27.3279 18.9598 26.4279 18.9598 25.8279 19.5598L25.6279 19.7598C25.5279 19.7598 25.5279 19.6598 25.4279 19.6598V19.3598C25.4279 18.5598 24.7279 17.8598 23.9279 17.8598H23.2279C22.4279 17.8598 21.7279 18.5598 21.7279 19.3598V19.6598C21.6279 19.6598 21.6279 19.7598 21.5279 19.7598L21.3279 19.5598C20.7279 18.9598 19.8279 18.9598 19.2279 19.5598L18.7279 20.0598C18.1279 20.6598 18.1279 21.5598 18.7279 22.1598L18.9279 22.3598C18.9279 22.4598 18.8279 22.4598 18.8279 22.5598H18.5279C17.7279 22.5598 17.0279 23.2598 17.0279 24.0598V24.7598C17.0279 25.5598 17.7279 26.2598 18.5279 26.2598H18.8279C18.8279 26.3598 18.9279 26.3598 18.9279 26.4598L18.7279 26.6598C18.1279 27.2598 18.1279 28.1598 18.7279 28.7598L19.2279 29.2598C19.8279 29.8598 20.7279 29.8598 21.3279 29.2598L21.5279 29.0598C21.6279 29.0598 21.6279 29.1598 21.7279 29.1598V29.4598C21.7279 30.2598 22.4279 30.9598 23.2279 30.9598H23.9279C24.7279 30.9598 25.4279 30.2598 25.4279 29.4598V29.1598C25.5279 29.1598 25.5279 29.0598 25.6279 29.0598L25.8279 29.2598C26.1279 29.5598 26.4279 29.6598 26.8279 29.6598H26.9279C27.4279 29.6598 27.8279 29.1598 28.1279 28.9598L28.4279 28.6598C29.0279 28.0598 29.0279 27.1598 28.4279 26.5598L28.2279 26.3598C28.2279 26.2598 28.3279 26.2598 28.3279 26.1598H28.6279C29.4279 26.1598 30.1279 25.4598 30.1279 24.6598V24.0598C30.1279 23.2598 29.4279 22.5598 28.6279 22.5598ZM29.1279 24.7598C29.1279 25.0598 28.9279 25.2598 28.6279 25.2598H28.2279C27.9279 25.2598 27.5279 25.5598 27.4279 25.8598L27.3279 26.0598C27.1279 26.4598 27.2279 26.8598 27.4279 27.0598L27.7279 27.3598C27.9279 27.5598 27.9279 27.8598 27.7279 28.0598L27.4279 28.3598C27.3279 28.4598 27.0279 28.7598 26.8279 28.7598C26.7279 28.7598 26.6279 28.7598 26.5279 28.6598L26.2279 28.3598C26.0279 28.1598 25.5279 28.0598 25.2279 28.2598L25.0279 28.3598C24.6279 28.4598 24.4279 28.8598 24.4279 29.1598V29.5598C24.4279 29.8598 24.2279 30.0598 23.9279 30.0598H23.2279C22.9279 30.0598 22.7279 29.8598 22.7279 29.5598V29.0598C22.7279 28.7598 22.4279 28.3598 22.1279 28.2598L21.9279 28.1598C21.8279 28.0598 21.6279 28.0598 21.5279 28.0598C21.3279 28.0598 21.1279 28.1598 20.9279 28.2598L20.6279 28.5598C20.4279 28.7598 20.1279 28.7598 19.9279 28.5598L19.4279 28.0598C19.3279 27.9598 19.3279 27.8598 19.3279 27.7598C19.3279 27.6598 19.3279 27.5598 19.4279 27.4598L19.7279 27.1598C19.9279 26.9598 20.0279 26.4598 19.8279 26.1598L19.7279 25.9598C19.6279 25.5598 19.2279 25.3598 18.9279 25.3598H18.5279C18.2279 25.3598 18.0279 25.1598 18.0279 24.8598V24.0598C18.0279 23.7598 18.2279 23.5598 18.5279 23.5598H18.9279C19.2279 23.5598 19.6279 23.2598 19.7279 22.9598L19.8279 22.7598C20.0279 22.3598 19.9279 21.9598 19.7279 21.7598L19.4279 21.4598C19.3279 21.3598 19.3279 21.2598 19.3279 21.1598C19.3279 21.0598 19.3279 20.9598 19.4279 20.8598L19.9279 20.3598C20.1279 20.1598 20.4279 20.1598 20.6279 20.3598L20.9279 20.6598C21.1279 20.8598 21.6279 20.9598 21.9279 20.7598L22.1279 20.6598C22.5279 20.5598 22.7279 20.1598 22.7279 19.8598V19.4598C22.7279 19.1598 22.9279 18.9598 23.2279 18.9598H23.9279C24.2279 18.9598 24.4279 19.1598 24.4279 19.4598V19.8598C24.4279 20.1598 24.7279 20.5598 25.0279 20.6598L25.2279 20.7598C25.5279 20.9598 26.0279 20.8598 26.2279 20.6598L26.5279 20.3598C26.7279 20.1598 27.0279 20.1598 27.2279 20.3598L27.7279 20.8598C27.8279 20.9598 27.8279 21.0598 27.8279 21.1598C27.8279 21.2598 27.8279 21.3598 27.7279 21.4598L27.4279 21.7598C27.2279 21.9598 27.1279 22.4598 27.3279 22.7598L27.4279 22.9598C27.5279 23.3598 27.9279 23.5598 28.2279 23.5598H28.6279C28.9279 23.5598 29.1279 23.7598 29.1279 24.0598V24.7598ZM23.6279 22.4598C22.5279 22.4598 21.6279 23.3598 21.6279 24.4598C21.6279 25.5598 22.5279 26.4598 23.6279 26.4598C24.7279 26.4598 25.6279 25.5598 25.6279 24.4598C25.6279 23.3598 24.7279 22.4598 23.6279 22.4598Z" fill="#EF3D55"/>
</svg>
