<svg width="24" height="24" viewBox="0 0 24 24" fill="none" xmlns="http://www.w3.org/2000/svg">
<path fill-rule="evenodd" clip-rule="evenodd" d="M12 1.75C12.315 1.75 12.5965 1.94687 12.7045 2.2428L14.8302 8.0655L21.0224 8.25033C21.336 8.2597 21.6106 8.4633 21.7108 8.76067C21.8109 9.05804 21.7153 9.3863 21.4712 9.58346L16.6558 13.4728L18.322 19.3969C18.4068 19.6985 18.2952 20.0211 18.0422 20.2058C17.7891 20.3905 17.4479 20.3985 17.1865 20.2258L12 16.7989L6.81342 20.2258C6.55203 20.3985 6.21083 20.3905 5.95779 20.2058C5.70474 20.0211 5.59317 19.6985 5.67799 19.3969L7.34415 13.4728L2.52873 9.58346C2.28463 9.3863 2.18906 9.05804 2.28919 8.76067C2.38932 8.4633 2.66397 8.2597 2.9776 8.25033L9.16971 8.0655L11.2955 2.2428C11.4035 1.94687 11.6849 1.75 12 1.75ZM12 4.68697L10.4045 9.05721C10.2993 9.34545 10.0291 9.54051 9.72236 9.54967L5.04694 9.68923L8.67123 12.6165C8.90456 12.805 9.00317 13.1143 8.92197 13.4031L7.66742 17.8637L11.5865 15.2742C11.8373 15.1086 12.1627 15.1086 12.4134 15.2742L16.3325 17.8637L15.078 13.4031C14.9968 13.1143 15.0954 12.805 15.3287 12.6165L18.953 9.68923L14.2776 9.54967C13.9709 9.54051 13.7007 9.34545 13.5955 9.05721L12 4.68697Z" fill="#F6A82C"/>
</svg>
