<svg width="33" height="30" viewBox="0 0 33 30" fill="none" xmlns="http://www.w3.org/2000/svg">
<path d="M31.7158 2.38709L29.6794 0.350724C29.4855 0.156784 29.1946 0.0598145 29.0007 0.0598145C28.7097 0.0598145 28.5158 0.156784 28.3219 0.350724L26.5764 2.09618L26.4794 2.19315L16.0067 12.6659C15.6188 13.0538 15.3279 13.8295 15.231 14.3144L15.037 16.1568C15.037 16.6416 15.3279 17.0295 15.8128 17.0295H15.9097L17.7522 16.8356C18.237 16.8356 19.0128 16.4477 19.4007 16.0598L23.6673 11.7931V20.5204C23.6673 22.2659 22.2128 23.7204 20.4673 23.7204H14.5522C14.3582 23.7204 14.2613 23.8174 14.1643 23.8174L10.2855 26.9204V24.3022C10.2855 23.9144 9.99459 23.6234 9.60671 23.6234H4.56429C2.81883 23.6234 1.36429 22.1689 1.36429 20.4235V8.78709C1.36429 7.04163 2.81883 5.49012 4.56429 5.49012H20.4673C20.8552 5.49012 21.1461 5.19921 21.1461 4.9083C21.1461 4.61739 20.8552 4.32648 20.4673 4.32648H4.56429C2.04308 4.32648 0.00671387 6.36284 0.00671387 8.78709V20.5204C0.00671387 23.0416 2.04308 25.078 4.56429 25.078H9.0249V28.4719C9.0249 28.7628 9.12187 28.9568 9.41277 29.0538C9.50974 29.0538 9.60671 29.1507 9.70368 29.1507C9.80065 29.1507 9.99459 29.0538 10.0916 29.0538L14.7461 25.175H20.4673C22.9885 25.175 25.0249 23.1386 25.0249 20.6174V10.5325L30.2613 5.29618L30.8431 4.71436L31.8128 3.74466C32.1037 3.35678 32.1037 2.77497 31.7158 2.38709ZM17.6552 15.6719L16.3946 15.7689L16.4916 14.5083C16.4916 14.4113 16.4916 14.3144 16.5885 14.2174L17.9461 15.575C17.8491 15.575 17.7522 15.6719 17.6552 15.6719ZM18.9158 14.7992L17.2673 13.1507L27.3522 3.06587L29.0007 4.71436L18.9158 14.7992ZM29.8734 3.84163L28.2249 2.19315L28.9037 1.51436L30.5522 3.16284L29.8734 3.84163ZM13.1946 9.46587H4.46732C4.17641 9.46587 3.8855 9.75678 3.8855 10.0477C3.8855 10.3386 4.17641 10.7265 4.56429 10.7265H13.2916C13.6794 10.7265 13.9703 10.4356 13.9703 10.1447C13.9703 9.85375 13.5825 9.46587 13.1946 9.46587ZM4.56429 15.575H13.2916C13.6794 15.575 13.9703 15.2841 13.9703 14.8962C13.9703 14.5083 13.6794 14.2174 13.2916 14.2174H4.56429C4.17641 14.3144 3.8855 14.6053 3.8855 14.8962C3.8855 15.1871 4.17641 15.575 4.56429 15.575ZM4.56429 20.4235H19.4976C19.8855 20.4235 20.1764 20.1325 20.1764 19.7447C20.1764 19.3568 19.8855 19.0659 19.4976 19.0659H4.56429C4.17641 19.1628 3.8855 19.4538 3.8855 19.7447C3.8855 20.0356 4.17641 20.4235 4.56429 20.4235Z" fill="#EF3D55"/>
</svg>
