<svg width="14" height="9" viewBox="0 0 14 9" fill="none" xmlns="http://www.w3.org/2000/svg">
<path fill-rule="evenodd" clip-rule="evenodd" d="M2.97978 0.646447C3.17504 0.451184 3.49162 0.451184 3.68689 0.646447L6.02022 2.97978C6.21548 3.17504 6.21548 3.49162 6.02022 3.68689C5.82496 3.88215 5.50838 3.88215 5.31311 3.68689L3.33333 1.70711L1.35355 3.68689C1.15829 3.88215 0.841709 3.88215 0.646447 3.68689C0.451184 3.49162 0.451184 3.17504 0.646447 2.97978L2.97978 0.646447Z" fill="#63666A"/>
<path fill-rule="evenodd" clip-rule="evenodd" d="M3.33333 1.36667C3.60948 1.36667 3.83333 1.59052 3.83333 1.86667V8.46667C3.83333 8.74281 3.60948 8.96667 3.33333 8.96667C3.05719 8.96667 2.83333 8.74281 2.83333 8.46667V1.86667C2.83333 1.59052 3.05719 1.36667 3.33333 1.36667Z" fill="#63666A"/>
<path fill-rule="evenodd" clip-rule="evenodd" d="M7.97978 5.77978C8.17504 5.58452 8.49162 5.58452 8.68689 5.77978L10.6667 7.75956L12.6464 5.77978C12.8417 5.58452 13.1583 5.58452 13.3536 5.77978C13.5488 5.97504 13.5488 6.29163 13.3536 6.48689L11.0202 8.82022C10.825 9.01548 10.5084 9.01548 10.3131 8.82022L7.97978 6.48689C7.78452 6.29163 7.78452 5.97504 7.97978 5.77978Z" fill="#63666A"/>
<path fill-rule="evenodd" clip-rule="evenodd" d="M10.6667 0.5C10.9428 0.5 11.1667 0.723858 11.1667 1V7.6C11.1667 7.87614 10.9428 8.1 10.6667 8.1C10.3905 8.1 10.1667 7.87614 10.1667 7.6V1C10.1667 0.723858 10.3905 0.5 10.6667 0.5Z" fill="#63666A"/>
</svg>
