<svg width="24" height="24" viewBox="0 0 24 24" fill="none" xmlns="http://www.w3.org/2000/svg">
<path d="M12.0049 20.6028L9.3349 14.7528L3.4449 12.0928C3.2659 12.0059 3.1263 11.8546 3.05399 11.6692C2.98169 11.4838 2.98201 11.278 3.0549 11.0928C3.09698 10.9985 3.15763 10.9135 3.23322 10.8431C3.30881 10.7726 3.3978 10.7181 3.4949 10.6828L18.0049 5.04282C18.2012 4.97541 18.4162 4.98798 18.6033 5.0778C18.7904 5.16762 18.9347 5.32748 19.0049 5.52282C19.0651 5.69779 19.0651 5.88785 19.0049 6.06282L13.4149 20.5628C13.335 20.7493 13.1874 20.8984 13.0017 20.9801C12.8161 21.0618 12.6063 21.0699 12.4149 21.0028C12.2287 20.9284 12.0783 20.7852 11.9949 20.6028H12.0049Z" fill="#63666A"/>
</svg>
