<svg width="18" height="21" viewBox="0 0 18 21" fill="none" xmlns="http://www.w3.org/2000/svg">
<path fill-rule="evenodd" clip-rule="evenodd" d="M9 4.3495C5.01421 4.3495 1.75 7.61371 1.75 11.5995C1.75 15.5853 5.01421 18.8495 9 18.8495C12.9858 18.8495 16.25 15.5853 16.25 11.5995C16.25 11.1853 16.5858 10.8495 17 10.8495C17.4142 10.8495 17.75 11.1853 17.75 11.5995C17.75 16.4137 13.8142 20.3495 9 20.3495C4.18579 20.3495 0.25 16.4137 0.25 11.5995C0.25 6.78529 4.18579 2.8495 9 2.8495C9.41421 2.8495 9.75 3.18529 9.75 3.5995C9.75 4.01371 9.41421 4.3495 9 4.3495Z" fill="#000000"/>
<path d="M13.1 3.0995C13.6 3.3995 13.6 3.7995 13.1 4.0995L9.8 6.0995C9.4 6.3995 9 6.1995 9 5.5995V1.5995C9 0.999499 9.4 0.799499 9.9 1.0995L13.1 3.0995Z" fill="#000000"/>
</svg>
