<svg width="28" height="28" viewBox="0 0 28 28" fill="none" xmlns="http://www.w3.org/2000/svg">
<path d="M2.42944 9.55695C2.43246 9.76641 2.51701 9.96645 2.66514 10.1146C2.81327 10.2627 3.01331 10.3473 3.22278 10.3503H13.9444C14.0794 11.1687 14.5008 11.9126 15.1332 12.4493C15.7657 12.986 16.5683 13.2806 17.3978 13.2806C18.2273 13.2806 19.0298 12.986 19.6623 12.4493C20.2948 11.9126 20.7161 11.1687 20.8511 10.3503H23.7328C23.9432 10.3503 24.145 10.2667 24.2937 10.1179C24.4425 9.96914 24.5261 9.76735 24.5261 9.55695C24.5261 9.34654 24.4425 9.14476 24.2937 8.99598C24.145 8.8472 23.9432 8.76361 23.7328 8.76361H20.8511C20.7161 7.94516 20.2948 7.20127 19.6623 6.66457C19.0298 6.12787 18.2273 5.83325 17.3978 5.83325C16.5683 5.83325 15.7657 6.12787 15.1332 6.66457C14.5008 7.20127 14.0794 7.94516 13.9444 8.76361H3.22278C3.01331 8.76663 2.81327 8.85118 2.66514 8.99931C2.51701 9.14744 2.43246 9.34748 2.42944 9.55695ZM17.4211 7.58528C17.8111 7.58528 18.1923 7.70092 18.5165 7.91757C18.8407 8.13422 19.0935 8.44215 19.2427 8.80242C19.3919 9.1627 19.431 9.55914 19.3549 9.9416C19.2788 10.3241 19.091 10.6754 18.8153 10.9511C18.5395 11.2269 18.1882 11.4147 17.8058 11.4907C17.4233 11.5668 17.0269 11.5278 16.6666 11.3785C16.3063 11.2293 15.9984 10.9766 15.7817 10.6523C15.5651 10.3281 15.4494 9.94691 15.4494 9.55695C15.4448 9.29509 15.4924 9.03494 15.5894 8.79167C15.6864 8.5484 15.8309 8.3269 16.0144 8.14009C16.198 7.95328 16.4169 7.80491 16.6584 7.70364C16.8999 7.60237 17.1592 7.55024 17.4211 7.55028V7.58528Z" fill="#63666A"/>
<path d="M3.22274 18.2952H6.1044C6.23941 19.1136 6.66071 19.8575 7.2932 20.3942C7.92568 20.9309 8.72823 21.2255 9.55774 21.2255C10.3872 21.2255 11.1898 20.9309 11.8223 20.3942C12.4548 19.8575 12.8761 19.1136 13.0111 18.2952H23.7327C23.8442 18.3088 23.9573 18.2985 24.0645 18.2652C24.1717 18.2318 24.2706 18.1761 24.3547 18.1016C24.4388 18.0272 24.5061 17.9357 24.5522 17.8333C24.5983 17.731 24.6221 17.6199 24.6221 17.5077C24.6221 17.3954 24.5983 17.2844 24.5522 17.182C24.5061 17.0796 24.4388 16.9881 24.3547 16.9137C24.2706 16.8393 24.1717 16.7835 24.0645 16.7502C23.9573 16.7168 23.8442 16.7066 23.7327 16.7202H13.0111C12.8761 15.9017 12.4548 15.1578 11.8223 14.6211C11.1898 14.0844 10.3872 13.7898 9.55774 13.7898C8.72823 13.7898 7.92568 14.0844 7.2932 14.6211C6.66071 15.1578 6.23941 15.9017 6.1044 16.7202H3.22274C3.11127 16.7066 2.9982 16.7168 2.89098 16.7502C2.78376 16.7835 2.68485 16.8393 2.60078 16.9137C2.51671 16.9881 2.44941 17.0796 2.40331 17.182C2.35721 17.2844 2.33337 17.3954 2.33337 17.5077C2.33337 17.6199 2.35721 17.731 2.40331 17.8333C2.44941 17.9357 2.51671 18.0272 2.60078 18.1016C2.68485 18.1761 2.78376 18.2318 2.89098 18.2652C2.9982 18.2985 3.11127 18.3088 3.22274 18.2952ZM9.5344 15.5302C9.92436 15.5302 10.3056 15.6458 10.6298 15.8624C10.954 16.0791 11.2068 16.387 11.356 16.7473C11.5052 17.1076 11.5443 17.504 11.4682 17.8865C11.3921 18.2689 11.2043 18.6203 10.9286 18.896C10.6528 19.1717 10.3015 19.3595 9.91906 19.4356C9.53659 19.5117 9.14015 19.4726 8.77988 19.3234C8.4196 19.1742 8.11167 18.9215 7.89502 18.5972C7.67837 18.273 7.56274 17.8918 7.56274 17.5018C7.56274 17.2429 7.61374 16.9865 7.71282 16.7473C7.81191 16.5081 7.95714 16.2907 8.14022 16.1076C8.32331 15.9246 8.54067 15.7793 8.77988 15.6802C9.01909 15.5812 9.27548 15.5302 9.5344 15.5302Z" fill="#63666A"/>
</svg>
