<svg width="20" height="20" viewBox="0 0 20 20" fill="none" xmlns="http://www.w3.org/2000/svg">
<path d="M9.88751 1.66699C8.16019 1.66691 6.50263 2.34856 5.27511 3.56381C4.04759 4.77906 3.3493 6.42968 3.33203 8.15692C3.33203 12.6474 9.10905 17.646 9.35488 17.859C9.5033 17.986 9.6922 18.0557 9.88751 18.0557C10.0828 18.0557 10.2717 17.986 10.4201 17.859C10.7069 17.646 16.443 12.6474 16.443 8.15692C16.4257 6.42968 15.7274 4.77906 14.4999 3.56381C13.2724 2.34856 11.6148 1.66691 9.88751 1.66699ZM9.88751 16.13C8.51905 14.8271 4.9709 11.2134 4.9709 8.15692C4.9709 6.85295 5.4889 5.60239 6.41094 4.68035C7.33299 3.75831 8.58355 3.24031 9.88751 3.24031C11.1915 3.24031 12.442 3.75831 13.3641 4.68035C14.2861 5.60239 14.8041 6.85295 14.8041 8.15692C14.8041 11.1888 11.256 14.8271 9.88751 16.13Z" fill="#000000"/>
<path d="M9.88756 4.94434C9.32031 4.94434 8.76581 5.11254 8.29417 5.42768C7.82252 5.74283 7.45492 6.19075 7.23785 6.71481C7.02077 7.23888 6.96398 7.81554 7.07464 8.37188C7.1853 8.92822 7.45846 9.43926 7.85956 9.84036C8.26066 10.2415 8.77169 10.5146 9.32803 10.6253C9.88437 10.7359 10.461 10.6791 10.9851 10.4621C11.5092 10.245 11.9571 9.87739 12.2722 9.40575C12.5874 8.9341 12.7556 8.3796 12.7556 7.81236C12.7556 7.05171 12.4534 6.32222 11.9156 5.78436C11.3777 5.2465 10.6482 4.94434 9.88756 4.94434ZM9.88756 9.04151C9.64445 9.04151 9.40681 8.96942 9.20468 8.83436C9.00254 8.6993 8.845 8.50733 8.75197 8.28274C8.65894 8.05814 8.63459 7.811 8.68202 7.57256C8.72945 7.33413 8.84651 7.11512 9.01841 6.94322C9.19031 6.77132 9.40933 6.65425 9.64776 6.60682C9.88619 6.5594 10.1333 6.58374 10.3579 6.67677C10.5825 6.7698 10.7745 6.92735 10.9096 7.12948C11.0446 7.33161 11.1167 7.56926 11.1167 7.81236C11.1167 8.13835 10.9872 8.45099 10.7567 8.6815C10.5262 8.91201 10.2135 9.04151 9.88756 9.04151Z" fill="#000000"/>
</svg>
